HIERARCHY
ROOT Hips
{
	OFFSET 0.000000 0.000000 0.000000
	CHANNELS 6 Xposition Yposition Zposition Zrotation Yrotation Xrotation 
	JOINT LowerBack
	{
		OFFSET 0.000000 0.000000 0.000000
		CHANNELS 3 Zrotation Yrotation Xrotation
		JOINT Spine
		{
			OFFSET 0.028270 2.035590 -0.193380
			CHANNELS 3 Zrotation Yrotation Xrotation
			JOINT Spine1
			{
				OFFSET 0.056720 2.048850 -0.042750
				CHANNELS 3 Zrotation Yrotation Xrotation
				JOINT Neck
				{
					OFFSET 0.000000 0.000000 0.000000
					CHANNELS 3 Zrotation Yrotation Xrotation
					JOINT Neck1
					{
						OFFSET -0.054170 1.746240 0.172020
						CHANNELS 3 Zrotation Yrotation Xrotation
						JOINT Head
						{
							OFFSET 0.104070 1.761360 -0.123970
							CHANNELS 3 Zrotation Yrotation Xrotation
							End Site
							{
								OFFSET 0.000000 0.000000 0.000000
							}
						}
					}
				}
				JOINT LeftShoulder
				{
					OFFSET 0.000000 0.000000 0.000000
					CHANNELS 3 Zrotation Yrotation Xrotation
					JOINT LeftArm
					{
						OFFSET 3.362410 1.200890 -0.311210
						CHANNELS 3 Zrotation Yrotation Xrotation
						JOINT LeftForeArm
						{
							OFFSET 4.983000 -0.000000 -0.000000
							CHANNELS 3 Zrotation Yrotation Xrotation
							JOINT LeftHand
							{
								OFFSET 3.483560 -0.000000 -0.000000
								CHANNELS 3 Zrotation Yrotation Xrotation
								JOINT LeftFingerBase
								{
									OFFSET 0.000000 0.000000 0.000000
									CHANNELS 3 Zrotation Yrotation Xrotation
									JOINT LeftHandIndex1
									{
										OFFSET 0.715260 -0.000000 -0.000000
										CHANNELS 3 Zrotation Yrotation Xrotation
										End Site
										{
											OFFSET 0.000000 0.000000 0.000000
										}
									}
								}
								JOINT LThumb
								{
									OFFSET 0.000000 0.000000 0.000000
									CHANNELS 3 Zrotation Yrotation Xrotation
									End Site
									{
										OFFSET 0.000000 0.000000 0.000000
									}
								}
							}
						}
					}
				}
				JOINT RightShoulder
				{
					OFFSET 0.000000 0.000000 0.000000
					CHANNELS 3 Zrotation Yrotation Xrotation
					JOINT RightArm
					{
						OFFSET -3.136600 1.374050 -0.404650
						CHANNELS 3 Zrotation Yrotation Xrotation
						JOINT RightForeArm
						{
							OFFSET -5.241900 -0.000000 -0.000000
							CHANNELS 3 Zrotation Yrotation Xrotation
							JOINT RightHand
							{
								OFFSET -3.444170 -0.000000 -0.000000
								CHANNELS 3 Zrotation Yrotation Xrotation
								JOINT RightFingerBase
								{
									OFFSET 0.000000 0.000000 0.000000
									CHANNELS 3 Zrotation Yrotation Xrotation
									JOINT RightHandIndex1
									{
										OFFSET -0.622530 -0.000000 -0.000000
										CHANNELS 3 Zrotation Yrotation Xrotation
										End Site
										{
											OFFSET 0.000000 0.000000 0.000000
										}
									}
								}
								JOINT RThumb
								{
									OFFSET 0.000000 0.000000 0.000000
									CHANNELS 3 Zrotation Yrotation Xrotation
									End Site
									{
										OFFSET 0.000000 0.000000 0.000000
									}
								}
							}
						}
					}
				}
			}
		}
	}
}
}
MOTION
Frames: 9
Frame Time: 0.008333
5.511753 16.370715 -2.165474 -178.830163 38.715433 -160.809639 -2.716579 0.822699 6.584974 -1.441001 0.912354 -1.257740 -5.740177 0.958888 1.114180 9.077779 4.794256 3.546406 -2.849458 -0.317159 2.634413 0.000000 0.000000 0.000000 -4.987851 -1.240339 2.133446 -47.892577 -9.735274 12.276278 -4.084915 -23.074215 -0.005444 1.910457 2.338991 0.042763 -0.159447 -0.004126 -0.000000 0.000000 0.000000 0.000000 0.000000 0.000000 0.000000 10.893190 4.853251 -0.126401 39.777224 40.851884 -13.341719 0.437974 40.751047 -0.028784 -4.485754 10.877348 -0.439802 -0.013472 -0.344358 -0.000000 0.000000 0.000000 0.000000 0.000000 0.000000 0.000000 
5.592517 16.334441 -2.267145 -179.222893 38.311753 -161.392220 -3.237950 0.798868 6.961177 -1.553251 0.907475 -1.187584 -5.767103 0.957591 1.074938 9.042195 5.005537 3.799566 -2.867467 -0.320022 2.688543 0.000000 0.000000 0.000000 -5.191074 -1.617583 2.157800 -47.666328 -10.434357 11.965610 -4.129046 -22.169686 -0.005165 2.206921 2.203168 0.045956 -0.159072 -0.000958 -0.000000 0.000000 0.000000 0.000000 0.000000 0.000000 0.000000 10.913039 4.936709 -0.203469 40.456526 40.430119 -13.625235 0.409259 40.727349 -0.031280 -4.937807 11.264554 -0.501417 -0.011580 -0.345859 -0.000000 0.000000 0.000000 0.000000 0.000000 0.000000 0.000000 
5.669853 16.306422 -2.370695 -179.597088 37.890673 -161.960738 -3.688885 0.783047 7.336040 -1.650713 0.907325 -1.109474 -5.790538 0.961954 1.064097 8.946203 5.199864 4.084744 -2.897342 -0.323599 2.749261 0.000000 0.000000 0.000000 -5.428266 -1.936982 2.161665 -47.575486 -11.354643 11.465857 -4.169425 -20.978359 -0.004958 2.680084 2.059413 0.051348 -0.158200 0.003573 -0.000000 0.000000 0.000000 0.000000 0.000000 0.000000 0.000000 10.913477 4.968848 -0.303800 41.224819 40.016793 -13.789486 0.384194 40.652376 -0.033801 -5.434324 11.672886 -0.571833 -0.009080 -0.346240 -0.000000 0.000000 0.000000 0.000000 0.000000 0.000000 0.000000 
5.743470 16.286575 -2.477014 -179.929214 37.457493 -162.490840 -4.050490 0.776183 7.689044 -1.729653 0.912949 -1.029879 -5.810687 0.972374 1.074497 8.792421 5.377081 4.401652 -2.940252 -0.327979 2.817253 0.000000 0.000000 0.000000 -5.681861 -2.238101 2.144193 -47.656573 -12.409400 10.689699 -4.199136 -19.550966 -0.004919 3.345499 1.915380 0.058734 -0.156278 0.009621 -0.000000 0.000000 0.000000 0.000000 0.000000 0.000000 0.000000 10.901218 4.954226 -0.417693 42.066945 39.602388 -13.817662 0.367198 40.524065 -0.036077 -5.938550 12.072818 -0.646348 -0.006079 -0.345235 -0.000000 0.000000 0.000000 0.000000 0.000000 0.000000 0.000000 
5.813248 16.274515 -2.586761 179.799696 37.018100 -162.960468 -4.309730 0.777245 8.004097 -1.788035 0.923705 -0.951050 -5.830608 0.988118 1.110834 8.587175 5.530872 4.732024 -2.996503 -0.332945 2.888030 0.000000 0.000000 0.000000 -5.949684 -2.473815 2.106315 -47.916029 -13.636562 9.649353 -4.214062 -17.896756 -0.005153 4.215700 1.761739 0.066914 -0.152975 0.017362 -0.000000 0.000000 0.000000 0.000000 0.000000 0.000000 0.000000 10.884515 4.893173 -0.542442 42.968418 39.192787 -13.700841 0.360625 40.344634 -0.037847 -6.405641 12.434882 -0.718061 -0.002888 -0.342609 -0.000000 0.000000 0.000000 0.000000 0.000000 0.000000 0.000000 
5.879325 16.269741 -2.700210 179.601281 36.577000 -163.353337 -4.462191 0.785190 8.266798 -1.825379 0.939102 -0.877817 -5.852085 1.008140 1.167219 8.340802 5.660072 5.065377 -3.065651 -0.338384 2.959488 0.000000 0.000000 0.000000 -6.218799 -2.657970 2.050847 -48.359491 -14.981784 8.323041 -4.207190 -16.083222 -0.005776 5.289427 1.585291 0.074388 -0.147749 0.026702 -0.000000 0.000000 0.000000 0.000000 0.000000 0.000000 0.000000 10.873441 4.793432 -0.669601 43.914529 38.776626 -13.437437 0.367789 40.123204 -0.038865 -6.790267 12.730286 -0.779170 0.000266 -0.338249 -0.000000 0.000000 0.000000 0.000000 0.000000 0.000000 0.000000 
5.942002 16.271619 -2.817342 179.480459 36.138891 -163.656974 -4.509421 0.797029 8.469929 -1.843093 0.956662 -0.808764 -5.881068 1.030319 1.255156 8.065877 5.752651 5.369433 -3.146584 -0.343842 3.023126 0.000000 0.000000 0.000000 -6.506005 -2.690957 1.981526 -48.950317 -16.552975 6.845991 -4.177047 -14.123368 -0.006910 6.551083 1.364496 0.077955 -0.140595 0.037406 -0.000000 0.000000 0.000000 0.000000 0.000000 0.000000 0.000000 10.880032 4.652680 -0.801318 44.892147 38.369843 -13.028804 0.389273 39.869688 -0.038964 -7.048931 12.936909 -0.821775 0.003018 -0.332069 -0.000000 0.000000 0.000000 0.000000 0.000000 0.000000 0.000000 
6.001940 16.279472 -2.937587 179.431053 35.703133 -163.872765 -4.466680 0.812543 8.605746 -1.843599 0.976650 -0.754897 -5.913554 1.053284 1.341370 7.778230 5.821767 5.660971 -3.237502 -0.349595 3.084842 0.000000 0.000000 0.000000 -6.759001 -2.750713 1.904626 -49.714526 -18.051005 5.104330 -4.112617 -12.226559 -0.008598 7.958304 1.089424 0.073914 -0.130773 0.048655 -0.000000 0.000000 0.000000 0.000000 0.000000 0.000000 0.000000 10.914799 4.495093 -0.916030 45.887419 37.921862 -12.489662 0.429855 39.604211 -0.038011 -7.147634 13.033292 -0.839175 0.005395 -0.324222 -0.000000 0.000000 0.000000 0.000000 0.000000 0.000000 0.000000 
6.059812 16.292646 -3.060351 179.444556 35.272050 -163.998666 -4.347770 0.827760 8.677514 -1.830566 0.995342 -0.711737 -5.955362 1.074079 1.440857 7.491711 5.854306 5.904701 -3.335759 -0.355099 3.135080 0.000000 0.000000 0.000000 -7.004302 -2.712251 1.824971 -50.595861 -19.614099 3.352589 -4.020164 -10.417301 -0.010858 9.448153 0.758108 0.058669 -0.119113 0.059787 -0.000000 0.000000 0.000000 0.000000 0.000000 0.000000 0.000000 10.986369 4.317301 -1.020725 46.892750 37.452532 -11.830081 0.487989 39.341687 -0.036022 -7.061385 13.012591 -0.827271 0.007087 -0.314744 -0.000000 0.000000 0.000000 0.000000 0.000000 0.000000 0.000000 
